<svg xmlns="http://www.w3.org/2000/svg" version="1.1" height="144" width="272" viewBox="0 0 272 144" class="diagram" text-anchor="middle" font-family="monospace" font-size="13px" stroke-linecap="round">
<text class="ascii" display="none"><![CDATA[
 _____       _
|  __ \     | |
| |  \/ ___ | | __ _ _ __   __ _
| | __ / _ \| |/ _` | '_ \ / _` |
| |_\ | (_) | | (_| | | | | (_| |
 \____/\___/|_|\__,_|_| |_|\__, |
                            __/ |
                           |___/
]]></text>
<path d="M 8,24 L 8,80" fill="none" stroke="black"/>
<path d="M 24,40 L 24,88" fill="none" stroke="black"/>
<path d="M 56,72 L 56,80" fill="none" stroke="black"/>
<path d="M 104,24 L 104,104" fill="none" stroke="black"/>
<path d="M 120,24 L 120,104" fill="none" stroke="black"/>
<path d="M 152,72 L 152,88" fill="none" stroke="black"/>
<path d="M 168,56 L 168,104" fill="none" stroke="black"/>
<path d="M 184,72 L 184,104" fill="none" stroke="black"/>
<path d="M 200,72 L 200,104" fill="none" stroke="black"/>
<path d="M 216,80 L 216,104" fill="none" stroke="black"/>
<path d="M 224,120 L 224,136" fill="none" stroke="black"/>
<path d="M 248,72 L 248,88" fill="none" stroke="black"/>
<path d="M 264,56 L 264,112" fill="none" stroke="black"/>
<path d="M 36,72 L 44,88" fill="none" stroke="black"/>
<path d="M 52,72 L 68,104" fill="none" stroke="black"/>
<path d="M 44,40 L 52,56" fill="none" stroke="black"/>
<path d="M 52,24 L 60,40" fill="none" stroke="black"/>
<path d="M 92,56 L 104,80" fill="none" stroke="black"/>
<path d="M 204,56 L 228,104" fill="none" stroke="black"/>
<path d="M 52,56 L 60,40" fill="none" stroke="black"/>
<path d="M 56,80 L 68,56" fill="none" stroke="black"/>
<path d="M 52,104 L 60,88" fill="none" stroke="black"/>
<path d="M 120,80 L 132,56" fill="none" stroke="black"/>
<path d="M 216,80 L 228,56" fill="none" stroke="black"/>
<path d="M 244,120 L 248,112" fill="none" stroke="black"/>
<path d="M 8,24 L 52,24" fill="none" stroke="black"/>
<path d="M 24,40 L 44,40" fill="none" stroke="black"/>
<path d="M 68,56 L 92,56" fill="none" stroke="black"/>
<path d="M 132,56 L 148,56" fill="none" stroke="black"/>
<path d="M 184,56 L 204,56" fill="none" stroke="black"/>
<path d="M 228,56 L 244,56" fill="none" stroke="black"/>
<path d="M 36,72 L 56,72" fill="none" stroke="black"/>
<path d="M 20,104 L 52,104" fill="none" stroke="black"/>
<path d="M 68,104 L 92,104" fill="none" stroke="black"/>
<path d="M 132,104 L 148,104" fill="none" stroke="black"/>
<path d="M 228,104 L 244,104" fill="none" stroke="black"/>
<path d="M 224,120 L 244,120" fill="none" stroke="black"/>
<path d="M 224,136 L 252,136" fill="none" stroke="black"/>
<g class="text">
<text x="112" y="20">_</text>
<text x="168" y="52">_ _</text>
<text x="256" y="52">_</text>
<text x="80" y="68">_</text>
<text x="148" y="68">_`</text>
<text x="188" y="68">'_</text>
<text x="244" y="68">_`</text>
<text x="32" y="84">_</text>
<text x="80" y="84">(_)</text>
<text x="140" y="84">(_</text>
<text x="236" y="84">(_</text>
<text x="16" y="100">\</text>
<text x="96" y="100">/</text>
<text x="112" y="100">_</text>
<text x="128" y="100">\</text>
<text x="156" y="100">,_</text>
<text x="176" y="100">_</text>
<text x="208" y="100">_</text>
<text x="248" y="100">,</text>
<text x="256" y="132">/</text>
</g>
<g class="source" fill="#23ADD8" font-size="12px">
<text x="18" y="22">_</text><text x="26" y="22">_</text><text x="34" y="22">_</text><text x="42" y="22">_</text><text x="50" y="22">_</text><text x="114" y="22">_</text><text x="10" y="38">|</text><text x="34" y="38">_</text><text x="42" y="38">_</text><text x="58" y="38">\</text><text x="106" y="38">|</text><text x="122" y="38">|</text><text x="10" y="54">|</text><text x="26" y="54">|</text><text x="50" y="54">\</text><text x="58" y="54">/</text><text x="74" y="54">_</text><text x="82" y="54">_</text><text x="90" y="54">_</text><text x="106" y="54">|</text><text x="122" y="54">|</text><text x="138" y="54">_</text><text x="146" y="54">_</text><text x="162" y="54">_</text><text x="178" y="54">_</text><text x="194" y="54">_</text><text x="202" y="54">_</text><text x="234" y="54">_</text><text x="242" y="54">_</text><text x="258" y="54">_</text><text x="10" y="70">|</text><text x="26" y="70">|</text><text x="42" y="70">_</text><text x="50" y="70">_</text><text x="66" y="70">/</text><text x="82" y="70">_</text><text x="98" y="70">\</text><text x="106" y="70">|</text><text x="122" y="70">|</text><text x="130" y="70">/</text><text x="146" y="70">_</text><text x="154" y="70">`</text><text x="170" y="70">|</text><text x="186" y="70">'</text><text x="194" y="70">_</text><text x="210" y="70">\</text><text x="226" y="70">/</text><text x="242" y="70">_</text><text x="250" y="70">`</text><text x="266" y="70">|</text><text x="10" y="86">|</text><text x="26" y="86">|</text><text x="34" y="86">_</text><text x="42" y="86">\</text><text x="58" y="86">|</text><text x="74" y="86">(</text><text x="82" y="86">_</text><text x="90" y="86">)</text><text x="106" y="86">|</text><text x="122" y="86">|</text><text x="138" y="86">(</text><text x="146" y="86">_</text><text x="154" y="86">|</text><text x="170" y="86">|</text><text x="186" y="86">|</text><text x="202" y="86">|</text><text x="218" y="86">|</text><text x="234" y="86">(</text><text x="242" y="86">_</text><text x="250" y="86">|</text><text x="266" y="86">|</text><text x="18" y="102">\</text><text x="26" y="102">_</text><text x="34" y="102">_</text><text x="42" y="102">_</text><text x="50" y="102">_</text><text x="58" y="102">/</text><text x="66" y="102">\</text><text x="74" y="102">_</text><text x="82" y="102">_</text><text x="90" y="102">_</text><text x="98" y="102">/</text><text x="106" y="102">|</text><text x="114" y="102">_</text><text x="122" y="102">|</text><text x="130" y="102">\</text><text x="138" y="102">_</text><text x="146" y="102">_</text><text x="154" y="102">,</text><text x="162" y="102">_</text><text x="170" y="102">|</text><text x="178" y="102">_</text><text x="186" y="102">|</text><text x="202" y="102">|</text><text x="210" y="102">_</text><text x="218" y="102">|</text><text x="226" y="102">\</text><text x="234" y="102">_</text><text x="242" y="102">_</text><text x="250" y="102">,</text><text x="266" y="102">|</text><text x="234" y="118">_</text><text x="242" y="118">_</text><text x="250" y="118">/</text><text x="266" y="118">|</text><text x="226" y="134">|</text><text x="234" y="134">_</text><text x="242" y="134">_</text><text x="250" y="134">_</text><text x="258" y="134">/</text></g></svg>
